<svg xmlns="http://www.w3.org/2000/svg" xmlns:xlink="http://www.w3.org/1999/xlink" width="19.373" height="19.372" viewBox="0 0 19.373 19.372">
  <defs>
    <clipPath id="clip-path">
      <path id="Path_1346" data-name="Path 1346" d="M3.432,13.119a9.686,9.686,0,1,0,9.686-9.686,9.686,9.686,0,0,0-9.686,9.686" transform="translate(-3.432 -3.433)" fill="none"/>
    </clipPath>
  </defs>
  <g id="Group_1327" data-name="Group 1327" transform="translate(-3.432 -3.433)">
    <g id="Group_1326" data-name="Group 1326" transform="translate(3.432 3.433)" clip-path="url(#clip-path)">
      <path id="Path_1343" data-name="Path 1343" d="M12.155,25.028H7.837a.564.564,0,0,0,.055-.058.223.223,0,0,0,.025-.055,2.487,2.487,0,0,0-.42-.2A9.706,9.706,0,0,1,.3,17.555c-.041-.146.053-.461-.3-.364V13.033a.7.7,0,0,0,.053.06c.016.015.045.039.053.034.242-.15.2-.419.256-.642A9.179,9.179,0,0,1,8.328,5.451c.944-.091,1.069.016,1.071.968,0,2.584.019,5.168-.012,7.752a2.342,2.342,0,0,0,.532,1.6c1.707,2.147,3.369,4.329,5.069,6.482.4.5.415.832-.154,1.227a8.245,8.245,0,0,1-2.476,1.248c-.138.039-.4.029-.2.3" transform="translate(-0.549 -5.106)" fill="#2194f0"/>
      <path id="Path_1344" data-name="Path 1344" d="M74.167,7.678v2.4a3.03,3.03,0,0,1-1.091.159c-2.66-.008-5.32,0-7.98,0-1.163,0-1.164,0-1.164-1.148q0-4.541,0-9.082h2.559a.777.777,0,0,0-.061.051A.334.334,0,0,0,66.392.1a.84.84,0,0,0,.247.179,9.7,9.7,0,0,1,7.248,7.266c.028.1.057.374.281.13" transform="translate(-54.245 -0.55)" fill="#fdbf07"/>
      <path id="Path_1345" data-name="Path 1345" d="M79.38,72.037c-.478-.219-.37.239-.419.409a10.255,10.255,0,0,1-1.887,3.66c-1.054,1.3-1.055,1.3-2.109,0q-2.239-2.76-4.469-5.527c-.177-.22-.473-.44-.31-.762s.511-.224.793-.225c2.476-.006,4.953.006,7.43-.014.329,0,.641.213.973.055Z" transform="translate(-59.458 -58.992)" fill="#2194f0"/>
    </g>
  </g>
</svg>
