<svg xmlns="http://www.w3.org/2000/svg" width="29.54" height="29.538" viewBox="0 0 29.54 29.538">
  <g id="Group_1844" data-name="Group 1844" transform="translate(-1817.23 -9.231)">
    <path id="Path_12" data-name="Path 12" d="M1832,9.231A14.769,14.769,0,1,0,1846.77,24,14.737,14.737,0,0,0,1832,9.231Zm0,28.308A13.538,13.538,0,1,1,1845.54,24,13.577,13.577,0,0,1,1832,37.539Z" fill="#e4e4e4"/>
    <path id="Path_13" data-name="Path 13" d="M1832,17.293a.585.585,0,0,0,.62-.615V15.385a.62.62,0,0,0-1.24,0v1.292A.62.62,0,0,0,1832,17.293Z" fill="#e4e4e4"/>
    <path id="Path_14" data-name="Path 14" d="M1832,30.77a.585.585,0,0,0-.62.615v1.292a.62.62,0,0,0,1.24,0V31.385A.585.585,0,0,0,1832,30.77Z" fill="#e4e4e4"/>
    <path id="Path_15" data-name="Path 15" d="M1837.66,17.477l-.68.677-.18.185a.673.673,0,0,0-.18.431.566.566,0,0,0,.18.431c.06.062.18.123.25.185h.12a.758.758,0,0,0,.49-.246l.06-.062.06-.061.07-.062.67-.677a.639.639,0,0,0,.19-.431.541.541,0,0,0-.19-.431A.658.658,0,0,0,1837.66,17.477Z" fill="#e4e4e4"/>
    <path id="Path_16" data-name="Path 16" d="M1826.34,28.8l-.68.677-.18.185a.639.639,0,0,0-.19.431.541.541,0,0,0,.19.431c.06.062.18.123.24.185h.13a.758.758,0,0,0,.49-.246l.06-.061.06-.062.06-.061.68-.677a.674.674,0,0,0,.18-.431.566.566,0,0,0-.18-.431A.659.659,0,0,0,1826.34,28.8Z" fill="#e4e4e4"/>
    <path id="Path_17" data-name="Path 17" d="M1840.62,23.385h-1.24a.615.615,0,0,0,0,1.231h1.24a.615.615,0,0,0,0-1.231Z" fill="#e4e4e4"/>
    <path id="Path_18" data-name="Path 18" d="M1824.62,23.385h-1.24a.615.615,0,0,0,0,1.231h1.24a.615.615,0,0,0,0-1.231Z" fill="#e4e4e4"/>
    <path id="Path_19" data-name="Path 19" d="M1837.91,29.046c-.06-.062-.13-.123-.19-.185l-.06-.062a.592.592,0,0,0-.86,0,.605.605,0,0,0,0,.861l.18.185.68.677a.663.663,0,0,0,.43.185.641.641,0,0,0,.62-.615.541.541,0,0,0-.19-.431Z" fill="#e4e4e4"/>
    <path id="Path_20" data-name="Path 20" d="M1825.72,18.585l.68.677a.593.593,0,0,0,.86,0,.69.69,0,0,0,.19-.431.574.574,0,0,0-.19-.431l-.68-.677-.18-.185-.06-.062a.592.592,0,0,0-.86,0,.541.541,0,0,0-.19.431.639.639,0,0,0,.19.431Z" fill="#e4e4e4"/>
    <path id="Path_21" data-name="Path 21" d="M1832,18.462A5.538,5.538,0,1,0,1837.54,24,5.515,5.515,0,0,0,1832,18.462Zm-.62,9.785a4.288,4.288,0,0,1,0-8.492Zm4.68-5.662-2.64-2.646A4.329,4.329,0,0,1,1836.06,22.585Zm-3.44,5.662v-.431l.36.369C1832.86,28.185,1832.74,28.247,1832.62,28.247Zm1.6-.554-1.6-1.6V24.37l2.52,2.523A3.033,3.033,0,0,1,1834.22,27.693Zm1.66-1.846-3.26-3.2V20.924l3.56,3.569s.07,0,.07.061A3.2,3.2,0,0,1,1835.88,25.847Z" fill="#e4e4e4"/>
  </g>
</svg>
