<svg xmlns="http://www.w3.org/2000/svg" width="13.317" height="15" viewBox="0 0 13.317 15">
  <path id="Path_594" data-name="Path 594" d="M1669.492,67.231a1.53,1.53,0,0,1-1.541-1.537V53.914H1667v-.951h3.8v-.732h5.707v.732h3.8v.951h-.951v11.78a1.48,1.48,0,0,1-.438,1.1,1.507,1.507,0,0,1-1.1.44Zm8.922-13.317H1668.9v11.78a.56.56,0,0,0,.59.585h8.333a.566.566,0,0,0,.409-.183.551.551,0,0,0,.181-.4Zm-6.839,10.463h.951V55.816h-.951Zm3.215,0h.951V55.816h-.951Z" transform="translate(-1667 -52.231)" fill="#fff"/>
</svg>
