<svg xmlns="http://www.w3.org/2000/svg" width="16" height="16" viewBox="0 0 16 16">
  <path id="Path_32" data-name="Path 32" d="M21.841,431.876a10.184,10.184,0,0,1,2.405-1.29,8.227,8.227,0,0,1,5.508,0,10.184,10.184,0,0,1,2.405,1.29,7.14,7.14,0,0,0,1.416-2.153A7.108,7.108,0,0,0,27,419.889a7.123,7.123,0,0,0-6.575,9.834A7.14,7.14,0,0,0,21.841,431.876ZM27,427.444a2.634,2.634,0,1,1,1.895-.772A2.576,2.576,0,0,1,27,427.444ZM27,435a7.9,7.9,0,0,1-3.133-.623,7.9,7.9,0,0,1-4.244-4.244,8.191,8.191,0,0,1,0-6.267,7.9,7.9,0,0,1,4.244-4.244,8.19,8.19,0,0,1,6.267,0,7.9,7.9,0,0,1,4.244,4.244,8.19,8.19,0,0,1,0,6.267,7.9,7.9,0,0,1-4.244,4.244A7.9,7.9,0,0,1,27,435Zm0-.889a7.057,7.057,0,0,0,2.419-.43,6.472,6.472,0,0,0,2.056-1.177,6.828,6.828,0,0,0-2.005-1.1A7.336,7.336,0,0,0,27,431a7.546,7.546,0,0,0-2.479.4,6.249,6.249,0,0,0-2,1.108,6.472,6.472,0,0,0,2.056,1.177A7.057,7.057,0,0,0,27,434.111Zm0-7.556a1.757,1.757,0,1,0-1.263-.515A1.717,1.717,0,0,0,27,426.556Z" transform="translate(-19 -419)" fill="#fff"/>
</svg>
