<svg xmlns="http://www.w3.org/2000/svg" width="29.54" height="29.538" viewBox="0 0 29.54 29.538">
  <g id="Group_1838" data-name="Group 1838" transform="translate(-1773.23 -9.231)">
    <path id="Path_10" data-name="Path 10" d="M1788,10.462A13.538,13.538,0,1,1,1774.46,24,13.577,13.577,0,0,1,1788,10.462Zm0-1.231A14.769,14.769,0,1,0,1802.77,24,14.737,14.737,0,0,0,1788,9.231Z" fill="#e4e4e4"/>
    <path id="Path_11" data-name="Path 11" d="M1794.71,29.354a25.9,25.9,0,0,1-1.17-6.585,5.225,5.225,0,0,0-3.88-5.292,2.012,2.012,0,0,0,.19-.861,1.85,1.85,0,0,0-3.7,0,2.235,2.235,0,0,0,.19.861,5.225,5.225,0,0,0-3.88,5.292,26.578,26.578,0,0,1-1.17,6.585.6.6,0,0,0,.31.738,12.336,12.336,0,0,0,4,.985,2.444,2.444,0,0,0,4.86-.062,24.84,24.84,0,0,0,3.88-.861.642.642,0,0,0,.37-.308A.69.69,0,0,0,1794.71,29.354Zm-7.33-12.739a.62.62,0,1,1,.62.615A.585.585,0,0,1,1787.38,16.615ZM1788,32a1.3,1.3,0,0,1-1.17-.8h.74a12.9,12.9,0,0,0,1.54-.062A1.139,1.139,0,0,1,1788,32Zm-5.42-2.831a23.67,23.67,0,0,0,1.11-6.4,4.31,4.31,0,0,1,8.62,0,26.762,26.762,0,0,0,1.04,6.339A17.605,17.605,0,0,1,1782.58,29.169Z" fill="#e4e4e4"/>
  </g>
</svg>
