<svg xmlns="http://www.w3.org/2000/svg" width="17.92" height="17.912" viewBox="0 0 17.92 17.912">
  <path id="Path_660" data-name="Path 660" d="M1389.99,29.45a8.607,8.607,0,0,1-3.16-.957,8.973,8.973,0,0,1-2.52-1.979,9.24,9.24,0,0,1-1.67-2.755,8.976,8.976,0,0,1-.6-3.265,8.77,8.77,0,0,1,2.28-6.03,8.574,8.574,0,0,1,5.7-2.926v1a7.924,7.924,0,0,0-4.99,2.678,8.009,8.009,0,0,0-.01,10.556,7.876,7.876,0,0,0,4.97,2.678Zm1-4.642-4.31-4.319.71-.713,3.1,3.1V16.192h1v6.683l3.1-3.094.71.719Zm1,4.642v-1a8.815,8.815,0,0,0,2.07-.546,7.416,7.416,0,0,0,1.83-1.065l.76.719a9.565,9.565,0,0,1-2.22,1.237A10.836,10.836,0,0,1,1391.99,29.45Zm3.95-15.262a9.089,9.089,0,0,0-1.86-1.075,7.948,7.948,0,0,0-2.06-.575v-1a9.87,9.87,0,0,1,4.63,1.892Zm2.11,11.919-.71-.713a7.437,7.437,0,0,0,1.05-1.837,8.5,8.5,0,0,0,.55-2.062h1.02a9.85,9.85,0,0,1-.65,2.443A8.932,8.932,0,0,1,1398.05,26.108Zm.89-6.613a8.5,8.5,0,0,0-.55-2.062,7.437,7.437,0,0,0-1.05-1.838l.75-.752a10.749,10.749,0,0,1,1.21,2.209,11.378,11.378,0,0,1,.66,2.443Z" transform="translate(-1382.04 -11.538)" fill="#fff"/>
</svg>
