<svg xmlns="http://www.w3.org/2000/svg" width="15.007" height="15" viewBox="0 0 15.007 15">
  <path id="Path_660" data-name="Path 660" d="M1388.7,26.538a7.207,7.207,0,0,1-2.646-.8,7.515,7.515,0,0,1-2.11-1.657,7.742,7.742,0,0,1-1.4-2.307,7.515,7.515,0,0,1-.5-2.735,7.345,7.345,0,0,1,1.909-5.05,7.181,7.181,0,0,1,4.774-2.45v.837a6.635,6.635,0,0,0-4.179,2.243,6.707,6.707,0,0,0-.008,8.84A6.6,6.6,0,0,0,1388.7,25.7Zm.837-3.888-3.609-3.617.594-.6,2.6,2.6v-5.6h.837v5.6l2.6-2.591.595.6Zm.837,3.888V25.7a7.381,7.381,0,0,0,1.734-.457,6.211,6.211,0,0,0,1.532-.892l.636.6a8.013,8.013,0,0,1-1.859,1.036A9.075,9.075,0,0,1,1390.372,26.538Zm3.308-12.781a7.612,7.612,0,0,0-1.557-.9,6.657,6.657,0,0,0-1.725-.482v-.837a8.265,8.265,0,0,1,3.877,1.585Zm1.767,9.982-.595-.6a6.229,6.229,0,0,0,.879-1.539,7.123,7.123,0,0,0,.46-1.727h.854a8.256,8.256,0,0,1-.544,2.046A7.48,7.48,0,0,1,1395.447,23.739Zm.745-5.538a7.123,7.123,0,0,0-.46-1.727,6.229,6.229,0,0,0-.879-1.539l.628-.63a9.006,9.006,0,0,1,1.013,1.85,9.531,9.531,0,0,1,.553,2.046Z" transform="translate(-1382.04 -11.538)" fill="#fff"/>
</svg>
