<svg xmlns="http://www.w3.org/2000/svg" xmlns:xlink="http://www.w3.org/1999/xlink" width="80" height="79.973" viewBox="0 0 80 79.973">
  <defs>
    <clipPath id="clip-path">
      <rect id="Rectangle_889" data-name="Rectangle 889" width="80" height="79.973" fill="#fff"/>
    </clipPath>
  </defs>
  <g id="icon-apd" clip-path="url(#clip-path)">
    <path id="Path_2157" data-name="Path 2157" d="M79.99,45.343c-.116-1.78-.028-3.573-.028-5.361q0-2.464,0-4.928c0-2.192,0-2.193-2.124-2.194-2.029,0-4.059-.032-6.087.016a1.1,1.1,0,0,1-1.3-.972,27.493,27.493,0,0,0-3.241-7.844c-.438-.705-.261-1.062.265-1.562,1.643-1.565,3.215-3.2,4.864-4.763.723-.682.761-1.211.044-1.917q-4.129-4.069-8.2-8.2c-.689-.7-1.205-.741-1.909.007-1.586,1.689-3.262,3.292-4.861,4.968a.976.976,0,0,1-1.463.19A28.841,28.841,0,0,0,48.24,9.573c-.841-.219-1.176-.551-1.147-1.462.07-2.22,0-4.445.034-6.666C47.146.4,46.748-.009,45.674,0c-3.768.044-7.537.05-11.305,0-1.155-.017-1.539.424-1.515,1.531.048,2.173-.018,4.348.03,6.521.018.837-.159,1.3-1.077,1.514A26.3,26.3,0,0,0,24.1,12.757a1.044,1.044,0,0,1-1.577-.218c-1.553-1.654-3.2-3.221-4.76-4.866-.655-.69-1.165-.852-1.906-.1q-4.112,4.189-8.3,8.3c-.674.666-.624,1.165.045,1.8,1.645,1.564,3.217,3.2,4.868,4.758.578.545.75.937.281,1.686a26.307,26.307,0,0,0-3.2,7.7A1.165,1.165,0,0,1,8.166,32.88c-2.172-.059-4.349.016-6.522-.035C.51,32.819-.022,33.138,0,34.4q.1,5.578,0,11.159c-.021,1.243.474,1.6,1.627,1.573C3.752,47.078,5.88,47.158,8,47.1c.916-.026,1.348.208,1.59,1.172a26.845,26.845,0,0,0,3.151,7.571,1.118,1.118,0,0,1-.265,1.69c-1.621,1.517-3.145,3.138-4.767,4.654-.765.715-.853,1.237-.063,2.008q4.1,4,8.1,8.095c.733.748,1.266.819,2.017.015,1.549-1.657,3.2-3.217,4.759-4.868a1.04,1.04,0,0,1,1.571-.219A26.361,26.361,0,0,0,31.8,70.408c.914.219,1.1.668,1.083,1.51-.049,2.221,0,4.445-.025,6.667-.012.964.339,1.4,1.36,1.386q5.725-.054,11.45,0c1.072.012,1.474-.39,1.456-1.441-.038-2.222.037-4.446-.034-6.666-.029-.91.306-1.243,1.146-1.462a29.052,29.052,0,0,0,7.706-3.212.966.966,0,0,1,1.457.182c1.595,1.681,3.274,3.282,4.864,4.967.7.744,1.221.709,1.913.007q4.068-4.131,8.2-8.2c.725-.713.667-1.234-.049-1.913-1.682-1.594-3.294-3.26-4.963-4.868-.44-.424-.593-.72-.226-1.33a29.007,29.007,0,0,0,3.309-7.975A1.1,1.1,0,0,1,71.76,47.1c2.125.045,4.254-.043,6.376.037,1.346.051,1.949-.331,1.854-1.795m-2.965.2c-2.026-.078-4.058.014-6.085-.038-1.025-.027-1.548.25-1.781,1.366a24.18,24.18,0,0,1-3.724,8.866,1.449,1.449,0,0,0,.29,2.222c1.551,1.451,3.017,2.993,4.568,4.445.6.562.783.887.068,1.565-2.2,2.093-4.337,4.264-6.458,6.444-.516.53-.814.591-1.355.024-1.568-1.639-3.215-3.2-4.8-4.826-.535-.548-.968-.767-1.715-.274a27.538,27.538,0,0,1-9.288,3.848,1.355,1.355,0,0,0-1.227,1.6c.032,2.125-.028,4.251.028,6.375.023.892-.155,1.265-1.164,1.241-2.945-.071-5.893-.063-8.839,0-.926.019-1.13-.288-1.106-1.153.059-2.124-.009-4.251.032-6.375.018-.95-.206-1.476-1.273-1.7a24.933,24.933,0,0,1-9-3.772,1.291,1.291,0,0,0-1.975.22c-1.527,1.611-3.158,3.123-4.694,4.727-.54.563-.849.691-1.461.053q-3.16-3.288-6.449-6.452c-.586-.567-.637-.879-.02-1.463,1.612-1.527,3.132-3.148,4.726-4.695.593-.576.826-1.022.282-1.833A26.408,26.408,0,0,1,10.811,46.8a1.425,1.425,0,0,0-1.7-1.3c-2.173.04-4.348-.014-6.521.027-.731.014-1.014-.163-1-.954.042-3.042.048-6.086,0-9.128-.014-.862.307-1.035,1.084-1.02,2.125.044,4.251-.022,6.375.031,1.024.026,1.548-.239,1.781-1.359a24.337,24.337,0,0,1,3.722-8.868,1.361,1.361,0,0,0-.251-2.087c-1.612-1.526-3.125-3.157-4.725-4.7-.529-.509-.611-.8-.035-1.355q3.331-3.221,6.556-6.551c.534-.55.827-.555,1.358,0,1.534,1.6,3.16,3.122,4.695,4.726a1.287,1.287,0,0,0,1.951.28,25.348,25.348,0,0,1,8.883-3.7c1.249-.265,1.529-.856,1.495-1.989-.063-2.075.016-4.154-.035-6.23-.02-.806.2-1.079,1.041-1.066,2.994.047,5.99.061,8.984-.006.967-.021,1.1.353,1.08,1.178-.05,2.124.013,4.251-.03,6.375-.02.967.25,1.46,1.3,1.681a24.719,24.719,0,0,1,9,3.78,1.29,1.29,0,0,0,1.973-.25c1.567-1.64,3.219-3.2,4.8-4.828.474-.489.745-.542,1.253-.018q3.281,3.374,6.657,6.655c.528.513.462.787-.028,1.252-1.542,1.462-2.988,3.028-4.575,4.437a1.659,1.659,0,0,0-.3,2.562,24.912,24.912,0,0,1,3.544,8.637c.244,1.184.805,1.464,1.89,1.433,2.075-.06,4.155.023,6.23-.037.866-.025,1.2.178,1.151,1.107-.079,1.493-.021,2.994-.021,4.491,0,1.4-.086,2.808.027,4.2.093,1.153-.356,1.357-1.386,1.317" transform="translate(0 0)" fill="#fff"/>
    <path id="Path_2158" data-name="Path 2158" d="M84.533,62.657A21.815,21.815,0,1,0,106.3,84.478,21.73,21.73,0,0,0,84.533,62.657m.053,42.083a20.269,20.269,0,1,1,20.169-20.345A20.3,20.3,0,0,1,84.587,104.74" transform="translate(-44.493 -44.483)" fill="#d37b00"/>
    <path id="Path_2159" data-name="Path 2159" d="M109.8,110.975A2.841,2.841,0,0,0,108.7,114.3c.1.446.583.87.131,1.32-1.294,1.285-1.559,3.794-4.169,3.53a.544.544,0,0,0-.406.13c-.917,1.021-1.825.6-2.795.066a16.139,16.139,0,0,0-2.377-1.046,2.752,2.752,0,0,1-2.081-2.2,2.689,2.689,0,0,0-2.862-1.957c-1.27.127-2.62,1.152-2.555,2.351.078,1.446-.736,2.02-1.723,2.632-.655.406-1.3.838-1.915,1.3a1.768,1.768,0,0,1-2.079.311,2.577,2.577,0,0,0-3.3,1.046A2.544,2.544,0,0,0,82.53,125a2.713,2.713,0,0,0,3.148,1.2,2.545,2.545,0,0,0,2.094-2.739,1.483,1.483,0,0,1,.9-1.6,18.453,18.453,0,0,0,1.687-1.115c1.095-.759,2.123-1.65,3.626-.866a1.485,1.485,0,0,0,1.528-.191c1.01-.9,1.892-.462,2.853.033.9.462,1.822.878,2.761,1.248a1.95,1.95,0,0,1,1.476,1.67,2.839,2.839,0,0,0,3.561,2.1,2.694,2.694,0,0,0,1.926-3.489,2.124,2.124,0,0,1,.479-2.431c.46-.619.9-1.255,1.315-1.9.331-.52.654-.984,1.369-.653a2.805,2.805,0,0,0,2.874-1.994,2.758,2.758,0,0,0-.962-3.24,2.726,2.726,0,0,0-3.369-.051M84.9,124.663a1.161,1.161,0,0,1-1.2-1.2c-.018-.814.527-1.168,1.178-1.346.846.157,1.3.623,1.262,1.4a1.131,1.131,0,0,1-1.241,1.145m9.384-6.4a1.134,1.134,0,0,1-1.165-1.2,1.168,1.168,0,0,1,1.239-1.275,1.206,1.206,0,0,1,1.241,1.273,1.17,1.17,0,0,1-1.316,1.2m11.075,4.892a1.092,1.092,0,0,1-1.187-1.163,1.154,1.154,0,0,1,1.1-1.279,1.218,1.218,0,0,1,1.351,1.116,1.186,1.186,0,0,1-1.259,1.327m7.327-9.761a1.165,1.165,0,0,1-1.2,1.191,1.264,1.264,0,0,1-1.342-1.238c-.03-.763.59-1.143,1.3-1.292.751.156,1.294.513,1.249,1.339" transform="translate(-58.199 -78.391)" fill="#fff"/>
  </g>
</svg>
