<svg xmlns="http://www.w3.org/2000/svg" width="24" height="24" viewBox="0 0 24 24">
  <g id="icon-footer3" transform="translate(-1848 -984)">
    <path id="Path_55" data-name="Path 55" d="M1860,1007a11.5,11.5,0,1,1,11.5-11.5A11.5,11.5,0,0,1,1860,1007Z" transform="translate(0 0.5)" fill="none" stroke="#97999b" stroke-width="1"/>
    <path id="Path_56" data-name="Path 56" d="M1859.8,1000.79a.645.645,0,0,0,.27-.05.712.712,0,0,0,.22-.15l5.2-5.2a2.048,2.048,0,0,0,.39-.514,1.242,1.242,0,0,0,.13-.577,1.478,1.478,0,0,0-.13-.617,1.774,1.774,0,0,0-.39-.547l-2.5-2.5a1.818,1.818,0,0,0-.51-.369,1.4,1.4,0,0,0-.58-.117,1.432,1.432,0,0,0-.58.117,1.573,1.573,0,0,0-.51.369l-.58.581,1.23,1.237a1.245,1.245,0,0,1,.3.443,1.5,1.5,0,0,1,.1.506,1.164,1.164,0,0,1-1.2,1.2,1.688,1.688,0,0,1-.51-.078,1.093,1.093,0,0,1-.43-.273l-1.28-1.272-2.88,2.878a.579.579,0,0,0-.15.23.793.793,0,0,0-.05.26.533.533,0,0,0,.15.389.522.522,0,0,0,.39.153.755.755,0,0,0,.27-.059.737.737,0,0,0,.22-.144l2.11-2.112.47.471-2.11,2.113a.727.727,0,0,0-.15.23.8.8,0,0,0-.05.26.541.541,0,0,0,.54.538.659.659,0,0,0,.27-.059.751.751,0,0,0,.22-.143l2.27-2.263.47.472-2.27,2.267a.84.84,0,0,0-.14.221.668.668,0,0,0-.06.268.543.543,0,0,0,.54.539.708.708,0,0,0,.26-.051.65.65,0,0,0,.23-.152l2.27-2.263.47.472-2.27,2.267a.566.566,0,0,0-.15.243.85.85,0,0,0-.05.26.456.456,0,0,0,.17.38A.52.52,0,0,0,1859.8,1000.79Zm0,.67a1.163,1.163,0,0,1-.88-.37,1.14,1.14,0,0,1-.32-.93,1.343,1.343,0,0,1-.95-.342,1.2,1.2,0,0,1-.36-.963,1.283,1.283,0,0,1-.97-.353,1.184,1.184,0,0,1-.32-.948,1.361,1.361,0,0,1-.93-.313,1.107,1.107,0,0,1-.38-.888,1.566,1.566,0,0,1,.1-.514,1.363,1.363,0,0,1,.3-.452l3.35-3.35,1.72,1.722a.766.766,0,0,0,.21.146.668.668,0,0,0,.28.057.554.554,0,0,0,.38-.15.5.5,0,0,0,.16-.389.821.821,0,0,0-.05-.281.721.721,0,0,0-.15-.209l-2.29-2.293a1.721,1.721,0,0,0-.52-.369,1.432,1.432,0,0,0-.58-.117,1.351,1.351,0,0,0-.57.117,1.816,1.816,0,0,0-.51.369l-2.03,2.033a1.789,1.789,0,0,0-.35.51,1.868,1.868,0,0,0-.14.612,2.054,2.054,0,0,0,.04.434,1.37,1.37,0,0,0,.15.392l-.51.505a2.239,2.239,0,0,1-.26-.618,2.835,2.835,0,0,1-.09-.713,2.361,2.361,0,0,1,.19-.87,2.266,2.266,0,0,1,.49-.74l2.02-2.017a2.387,2.387,0,0,1,.74-.513,2.183,2.183,0,0,1,1.68,0,2.435,2.435,0,0,1,.72.513l.58.581.58-.581a2.51,2.51,0,0,1,.74-.513,2.019,2.019,0,0,1,.83-.168,2.1,2.1,0,0,1,.84.168,2.387,2.387,0,0,1,.74.513l2.48,2.483a2.412,2.412,0,0,1,.53.775,2.1,2.1,0,0,1,.19.882,1.807,1.807,0,0,1-.19.835,2.624,2.624,0,0,1-.53.728l-5.2,5.189a1.251,1.251,0,0,1-.96.4Z" transform="translate(0 0.5)" fill="#97999b"/>
  </g>
</svg>
