<svg xmlns="http://www.w3.org/2000/svg" width="24" height="24" viewBox="0 0 24 24">
  <g id="icon-footer1" transform="translate(-1784 -984)">
    <path id="Path_51" data-name="Path 51" d="M1796,1007a11.5,11.5,0,1,1,11.5-11.5A11.5,11.5,0,0,1,1796,1007Z" transform="translate(0 0.5)" fill="none" stroke="#97999b" stroke-width="1"/>
    <path id="Path_52" data-name="Path 52" d="M1796,1001.83a6.028,6.028,0,0,1-2.47-.5,6.272,6.272,0,0,1-3.36-3.36,6.328,6.328,0,0,1-.01-4.907,6.485,6.485,0,0,1,3.35-3.4,5.976,5.976,0,0,1,2.45-.511c.16,0,.34.007.52.021s.35.035.53.065a3.315,3.315,0,0,0,.18,1.359,2.973,2.973,0,0,0,.68,1.038,2.9,2.9,0,0,0,1.09.64,4.054,4.054,0,0,0,1.43.18,2.046,2.046,0,0,0,.41,1.768,2.281,2.281,0,0,0,1.53.908v.157a6.351,6.351,0,0,1-.5,2.534,6.739,6.739,0,0,1-1.36,2.083,6.417,6.417,0,0,1-2.01,1.417A6.023,6.023,0,0,1,1796,1001.83Zm-.99-7.791a.82.82,0,0,0,.61-.26.846.846,0,0,0,.25-.618.827.827,0,0,0-.25-.613.856.856,0,0,0-.62-.253.827.827,0,0,0-.61.255.856.856,0,0,0,0,1.229A.842.842,0,0,0,1795.01,994.039Zm-1.34,3.333a.841.841,0,0,0,.62-.259.893.893,0,0,0,.25-.619.876.876,0,0,0-.87-.865.865.865,0,0,0-.62.254.842.842,0,0,0-.26.617.886.886,0,0,0,.88.872Zm4.34.667a.518.518,0,0,0,.38-.16.542.542,0,0,0,.15-.385.493.493,0,0,0-.16-.379.515.515,0,0,0-.38-.153.529.529,0,0,0-.38.155.534.534,0,0,0,0,.762A.54.54,0,0,0,1798.01,998.039Zm-2.01,3.131a5.411,5.411,0,0,0,3.82-1.563,5.68,5.68,0,0,0,1.83-3.958,3.171,3.171,0,0,1-1.38-1,3.07,3.07,0,0,1-.58-1.558,3.753,3.753,0,0,1-2.3-.984,3.3,3.3,0,0,1-1.01-2.277,5.37,5.37,0,0,0-2.37.355,5.707,5.707,0,0,0-1.92,1.235,6.1,6.1,0,0,0-1.29,1.861,5.656,5.656,0,0,0,5.2,7.889Z" transform="translate(0 0.5)" fill="#97999b"/>
  </g>
</svg>
