<svg xmlns="http://www.w3.org/2000/svg" xmlns:xlink="http://www.w3.org/1999/xlink" width="16" height="15.983" viewBox="0 0 16 15.983">
  <defs>
    <clipPath id="clip-path">
      <rect id="Rectangle_911" data-name="Rectangle 911" width="16" height="15.983" transform="translate(0 0)" fill="none"/>
    </clipPath>
  </defs>
  <g id="icon-role" transform="translate(0 0)">
    <g id="Group_1786" data-name="Group 1786" transform="translate(0 0)" clip-path="url(#clip-path)">
      <path id="Path_2157" data-name="Path 2157" d="M4.384,25.478c-1,0-2.009,0-3.013,0a1.244,1.244,0,0,1-1.355-1.35A5.791,5.791,0,0,1,.1,22.49a3.5,3.5,0,0,1,1.538-1.913,9.1,9.1,0,0,1,3.408-1.295,13.008,13.008,0,0,1,2.493-.233c.4,0,.635.2.646.533s-.228.577-.631.582a10.918,10.918,0,0,0-4.5.9,4.555,4.555,0,0,0-1.44.983,1.613,1.613,0,0,0-.49,1.231,6.648,6.648,0,0,1,0,.781c-.018.251.08.315.321.314,1.981-.008,3.962,0,5.942,0,.084,0,.168,0,.251,0a.55.55,0,0,1,.545.583.534.534,0,0,1-.564.529c-.623.007-1.246,0-1.869,0H4.384" transform="translate(0 -10.224)" fill="#fff"/>
      <path id="Path_2158" data-name="Path 2158" d="M24.936,21a3.613,3.613,0,0,0-.53,0c-.168.012-.2-.073-.286-.209a.8.8,0,0,1,.236-1.226.5.5,0,0,0-.005-.766.545.545,0,0,0-.776,0,2.932,2.932,0,0,0-.335.335c-.13.16-.25.217-.438.076s-.529-.1-.63-.292-.022-.473-.031-.714a.511.511,0,0,0-.391-.513c-.41-.124-.744.159-.713.66.025.421-.041.674-.514.818-.315.1-.5.123-.689-.148a1.243,1.243,0,0,0-.137-.139.626.626,0,0,0-.454-.24.539.539,0,0,0-.516.313.5.5,0,0,0,.054.574,2.768,2.768,0,0,0,.367.38c.161.138.233.258.084.462a1.4,1.4,0,0,0-.183.462.2.2,0,0,1-.23.173,2.464,2.464,0,0,0-.749.036.546.546,0,0,0,.08,1.064,2.853,2.853,0,0,0,.362.012c.453,0,.451,0,.611.409a1.943,1.943,0,0,0,.157.325.189.189,0,0,1-.045.285,4.507,4.507,0,0,0-.432.435.542.542,0,0,0,.028.755.533.533,0,0,0,.755.024,3.444,3.444,0,0,0,.376-.373c.12-.139.215-.133.4-.08a.808.808,0,0,1,.686,1.017.514.514,0,0,0,.647.541.528.528,0,0,0,.443-.636c-.039-.441.019-.774.542-.839a.576.576,0,0,0,.222-.112.163.163,0,0,1,.242.034c.14.149.283.3.435.433a.555.555,0,0,0,.782-.788,2.17,2.17,0,0,0-.3-.3c-.2-.154-.176-.294-.108-.535a.74.74,0,0,1,.951-.611.507.507,0,0,0,.584-.526A.549.549,0,0,0,24.936,21M21.6,23.1a1.531,1.531,0,1,1,1.529-1.545A1.529,1.529,0,0,1,21.6,23.1" transform="translate(-9.491 -9.479)" fill="#fff"/>
      <path id="Path_2159" data-name="Path 2159" d="M11.748,0a4.086,4.086,0,1,0,4.09,4.093A4.084,4.084,0,0,0,11.748,0m.006,7.056a2.97,2.97,0,1,1,2.968-2.983,2.968,2.968,0,0,1-2.968,2.983" transform="translate(-4.105 0)" fill="#fff"/>
    </g>
  </g>
</svg>
