<svg xmlns="http://www.w3.org/2000/svg" xmlns:xlink="http://www.w3.org/1999/xlink" width="16" height="16.665" viewBox="0 0 16 16.665">
  <defs>
    <clipPath id="clip-path">
      <rect id="Rectangle_910" data-name="Rectangle 910" width="16" height="16.665" fill="none"/>
    </clipPath>
  </defs>
  <g id="icon-modules" transform="translate(0 0.001)">
    <g id="Group_1784" data-name="Group 1784" transform="translate(0 -0.001)" clip-path="url(#clip-path)">
      <path id="Path_2154" data-name="Path 2154" d="M20.905,15.779h-.011c0-.825,0-1.65,0-2.475a.429.429,0,0,0-.236-.424q-1.918-1.069-3.832-2.146a.488.488,0,0,0-.534-.016q-1.93,1.1-3.869,2.186a.425.425,0,0,0-.238.4q.013,2.475.021,4.95a.5.5,0,0,0,.287.477q1.919,1.068,3.829,2.151a.454.454,0,0,0,.489,0c1.257-.715,2.514-1.431,3.777-2.137a.544.544,0,0,0,.318-.539c-.011-.807,0-1.615,0-2.423m-4.72,4.172c-1.031-.579-2.041-1.148-3.053-1.715-.1-.057-.18-.1-.18-.249.006-1.346,0-2.693,0-4.04.084-.035.131.029.186.059.945.528,1.888,1.061,2.837,1.582a.354.354,0,0,1,.211.363c-.008,1.328,0,2.656,0,4m.551-4.995c-.094.053-.174.113-.3.039-1.014-.58-2.033-1.149-3.047-1.719,0-.091.076-.1.124-.124.956-.543,1.914-1.082,2.87-1.627a.288.288,0,0,1,.33-.011c.977.558,1.96,1.106,2.941,1.658.027.015.053.032.113.069l-.564.318q-1.23.7-2.46,1.4m3.43,2.951a.3.3,0,0,1-.161.312c-.938.521-1.87,1.054-2.8,1.581a.792.792,0,0,1-.234.094c-.085.017-.022-.053-.032-.082q0-1.644,0-3.288a.972.972,0,0,1,.645-1.2c.872-.411,1.691-.935,2.53-1.409.087.059.05.134.051.2,0,1.267,0,2.534.007,3.8" transform="translate(-4.909 -4.288)" fill="#fff"/>
      <path id="Path_2155" data-name="Path 2155" d="M8.451,7.968q-1.9-1.055-3.783-2.13a.585.585,0,0,0-.652.011Q2.132,6.928.237,7.985A.422.422,0,0,0,0,8.41c.006.121.008.243.008.364q.006,2.281.01,4.561a.438.438,0,0,0,.21.44Q2.213,14.887,4.2,16a.326.326,0,0,0,.345,0c.662-.379,1.327-.752,1.985-1.137a.365.365,0,1,0-.371-.629c-.257.142-.514.288-.77.432l-.658.367c0-1.354,0-2.665,0-3.977a.365.365,0,0,1,.218-.384c.445-.233.876-.492,1.313-.74.557-.315,1.114-.628,1.679-.946a.921.921,0,0,1,.027.092c.039.3.165.434.389.428s.357-.176.361-.48c0-.2-.007-.4,0-.6a.453.453,0,0,0-.259-.462M3.987,15.035c-.775-.435-1.545-.864-2.311-1.3C1.37,13.56.94,13.47.792,13.185a2.444,2.444,0,0,1-.041-1.025q0-1.562,0-3.122c.1-.038.156.033.22.069.945.527,1.887,1.059,2.834,1.581a.318.318,0,0,1,.182.328c-.005,1.216,0,2.432,0,3.648v.371M6.356,9.017c-.61.346-1.221.69-1.83,1.037a.277.277,0,0,1-.31.014C3.23,9.508,2.241,8.955,1.252,8.4a.624.624,0,0,1-.089-.079C2.2,7.734,3.224,7.157,4.246,6.576a.183.183,0,0,1,.21,0c1.025.579,2.053,1.154,3.112,1.749-.422.242-.816.471-1.212.7" transform="translate(0 -2.314)" fill="#fff"/>
      <path id="Path_2156" data-name="Path 2156" d="M18.914,2.637a.444.444,0,0,0-.259-.415Q16.749,1.16,14.847.088a.523.523,0,0,0-.58,0C13.178.713,12.1,1.372,10.98,1.929a1.148,1.148,0,0,0-.764,1.37c.053.314.121.473.352.484s.365-.144.39-.474c0-.013.017-.025.036-.051.889.5,1.771,1.014,2.674,1.489.368.194.612.39.537.856a.357.357,0,0,0,.358.42c.223,0,.365-.163.37-.437a.675.675,0,0,0,0-.13c-.06-.3.074-.457.338-.6.957-.518,1.9-1.065,2.892-1.627,0,1.1,0,2.137,0,3.179a1.034,1.034,0,0,0,.017.259.369.369,0,0,0,.727-.019,1,1,0,0,0,.013-.207q0-1.9-.006-3.8m-2.388.655c-.6.341-1.206.68-1.808,1.023a.255.255,0,0,1-.286.029Q12.91,3.478,11.38,2.622c.013-.091.094-.1.149-.134.941-.535,1.886-1.064,2.824-1.6a.353.353,0,0,1,.4,0c.94.537,1.885,1.064,2.829,1.595.05.028.1.06.179.11l-1.237.7" transform="translate(-4.104 0)" fill="#fff"/>
    </g>
  </g>
</svg>
