<svg xmlns="http://www.w3.org/2000/svg" xmlns:xlink="http://www.w3.org/1999/xlink" width="18.667" height="14.352" viewBox="0 0 18.667 14.352">
  <defs>
    <clipPath id="clip-path">
      <rect id="Rectangle_927" data-name="Rectangle 927" width="18.667" height="14.352" fill="none"/>
    </clipPath>
  </defs>
  <g id="icon-tagpen" transform="translate(0 0)">
    <g id="Group_1872" data-name="Group 1872" transform="translate(0 0)" clip-path="url(#clip-path)">
      <path id="Path_2173" data-name="Path 2173" d="M11.006,16.545a.273.273,0,0,0-.084.437.447.447,0,0,0,.356.084H15.12q1.965,0,3.929,0c.2,0,.36-.07.359-.285s-.163-.267-.346-.274c-.048,0-.1,0-.145,0h-7.6a.7.7,0,0,0-.315.037" transform="translate(-4.024 -6.125)" fill="#fff"/>
      <path id="Path_2174" data-name="Path 2174" d="M21.108,14.537c.192,0,.372-.052.374-.272s-.179-.286-.387-.284c-.717,0-1.434,0-2.151,0s-1.415,0-2.122,0c-.206,0-.386.041-.386.284s.181.272.37.272h4.3" transform="translate(-6.098 -5.187)" fill="#fff"/>
      <path id="Path_2175" data-name="Path 2175" d="M21.112,11.464c-.718,0-1.437,0-2.156,0s-1.437,0-2.156,0c-.195,0-.367.036-.366.269S16.6,12,16.8,12q2.156-.006,4.312,0c.2,0,.369-.048.369-.269s-.174-.269-.37-.267" transform="translate(-6.097 -4.253)" fill="#fff"/>
      <path id="Path_2176" data-name="Path 2176" d="M7.855,7.262c-.242.59-.469,1.187-.7,1.783a.466.466,0,0,0,.092.538.482.482,0,0,0,.565.082c.377-.15.755-.3,1.135-.442a3.189,3.189,0,0,0,1.218-.653q3.142-3.136,6.28-6.277a1.331,1.331,0,0,0,.382-.974A1.572,1.572,0,0,0,16.725.81,1.355,1.355,0,0,0,14.457.464q-3.051,3.044-6.1,6.093a2.19,2.19,0,0,0-.506.705m7.282-4.418q-2.563,2.541-5.107,5.1c-.041.041-.084.079-.128.121a1.216,1.216,0,0,1-.345-.312c-.1-.106.031-.152.081-.2,1.7-1.7,3.4-3.4,5.1-5.108.171-.172.238-.064.335.043s.265.164.07.359m-.531-1.757c.144-.129.269-.282.424-.4a.744.744,0,0,1,.822-.055.75.75,0,0,1,.434.6c.016.544-.318.765-.579,1.03-.061.062-.1-.011-.138-.048-.316-.313-.63-.63-.947-.942-.064-.062-.1-.109-.017-.185M8.872,6.815q2.573-2.556,5.134-5.124c.047-.047.086-.153.184-.079s.209.17.274.223a.232.232,0,0,1-.1.21Q11.8,4.61,9.242,7.178c-.185.186-.239.008-.337-.07s-.172-.153-.032-.292m-.319.71c.244.262.5.512.759.763.092.09.148.155-.025.22-.5.191-1,.389-1.574.611.216-.559.407-1.043.591-1.53.057-.15.1-.218.248-.064" transform="translate(-2.64 0)" fill="#fff"/>
      <path id="Path_2177" data-name="Path 2177" d="M18.659,8.148a2.007,2.007,0,0,0-2.137-2.13c-1.059,0-2.118,0-3.177,0A3.075,3.075,0,0,0,13,6.023c-.16.018-.282.1-.28.277A.265.265,0,0,0,13,6.57c.077.006.155,0,.233,0,1.1,0,2.2,0,3.293,0a1.466,1.466,0,0,1,1.6,1.592q0,3.132,0,6.265a1.472,1.472,0,0,1-1.615,1.6c-3.837,0-7.675,0-11.512.005A1.7,1.7,0,0,1,3.6,15.4c-.881-1.048-1.775-2.084-2.665-3.124a1.52,1.52,0,0,1-.35-.691,1.724,1.724,0,0,1,.687-1.63c.159.167.3.336.468.487.1.1.1.164.035.286A1.142,1.142,0,0,0,2,12.162a1.155,1.155,0,0,0,1.4.127,1.183,1.183,0,0,0,.5-1.321,1.079,1.079,0,0,0-1.2-.8.767.767,0,0,1-.8-.333.878.878,0,0,0-.123-.123c-.145-.108-.151-.2-.023-.343C2.376,8.652,3,7.934,3.606,7.2a1.621,1.621,0,0,1,1.367-.631c.748.015,1.5,0,2.244,0,.189,0,.34-.065.345-.268s-.143-.28-.33-.288c-.058,0-.117,0-.175,0-.69,0-1.38.006-2.069,0a2.171,2.171,0,0,0-1.8.833c-.59.721-1.21,1.418-1.808,2.132-.125.148-.2.157-.331.009A7.292,7.292,0,0,0,.51,8.454a.256.256,0,0,0-.389,0,.26.26,0,0,0,.012.389c.132.142.273.276.41.413.317.318.317.318.02.665a1.973,1.973,0,0,0-.019,2.742c.9,1.06,1.806,2.11,2.706,3.166a2.025,2.025,0,0,0,1.63.749c3.9-.006,7.791-.019,11.687.007a2.064,2.064,0,0,0,2.1-2.112c-.025-2.108-.006-4.215-.008-6.324M2.778,10.68a.619.619,0,0,1,.609.616.59.59,0,0,1-.6.615.6.6,0,0,1-.626-.616.623.623,0,0,1,.613-.615" transform="translate(0 -2.232)" fill="#fff"/>
    </g>
  </g>
</svg>
