<svg id="icon-tag" xmlns="http://www.w3.org/2000/svg" xmlns:xlink="http://www.w3.org/1999/xlink" width="11" height="19.017" viewBox="0 0 11 19.017">
  <defs>
    <clipPath id="clip-path">
      <rect id="Rectangle_928" data-name="Rectangle 928" width="11" height="19.017" fill="#fff"/>
    </clipPath>
  </defs>
  <g id="Group_1874" data-name="Group 1874" transform="translate(0 0)" clip-path="url(#clip-path)">
    <path id="Path_2178" data-name="Path 2178" d="M9.695,5.031a5.382,5.382,0,0,0,1.294-2.868A1.809,1.809,0,0,0,8.56.107,5.841,5.841,0,0,0,6.073,1.732c-.093.1-.163.182-.342.145a2.383,2.383,0,0,0-2.348.763C2.538,3.542,1.7,4.449.833,5.328A2.794,2.794,0,0,0,0,7.406C.011,8.9,0,10.385,0,11.874,0,13.416,0,14.958,0,16.5a2.451,2.451,0,0,0,2.525,2.515q2.693,0,5.386,0a2.435,2.435,0,0,0,2.507-2.495c.008-3.084,0-6.168,0-9.252a2.441,2.441,0,0,0-.731-1.826c-.166-.163-.125-.255,0-.411M7.115,2.475A4.247,4.247,0,0,1,9.029,1.3c.428-.1.605.032.675.466a1.67,1.67,0,0,1-.049.689,4.827,4.827,0,0,1-1.01,1.861c-.516-.545-1.02-1.081-1.529-1.612-.082-.086-.095-.142,0-.23m2.054,9.4q0,2.233,0,4.467a1.22,1.22,0,0,1-1.389,1.4H2.617a1.189,1.189,0,0,1-1.335-1.323q-.005-4.546,0-9.091a1.436,1.436,0,0,1,.41-1.057c.871-.9,1.727-1.824,2.592-2.735a1.194,1.194,0,0,1,1.9.009c.458.482.9.977,1.376,1.444.2.2.147.282-.058.409a4.114,4.114,0,0,1-.963.466.3.3,0,0,1-.376-.115,1.164,1.164,0,0,0-1.705-.19,1.2,1.2,0,0,0-.127,1.7,1.18,1.18,0,0,0,1.718.071.578.578,0,0,1,.333-.155,4.223,4.223,0,0,0,2.058-.9c.154-.118.231-.106.357.031a1.362,1.362,0,0,1,.378.974c0,1.531,0,3.062,0,4.593" transform="translate(0 0)" fill="#fff"/>
    <path id="Path_2179" data-name="Path 2179" d="M8.268,17.265q-2.056-.009-4.113,0a.647.647,0,0,0-.689.632.632.632,0,0,0,.707.632c.674,0,1.35,0,2.025,0s1.37,0,2.056,0a.649.649,0,0,0,.712-.635.665.665,0,0,0-.7-.63" transform="translate(-0.995 -4.955)" fill="#fff"/>
    <path id="Path_2180" data-name="Path 2180" d="M8.277,20.593c-.685,0-1.37,0-2.055,0s-1.37-.006-2.055,0a.635.635,0,1,0,0,1.263c1.37.006,2.739,0,4.109,0a.63.63,0,0,0,.532-.228.584.584,0,0,0,.1-.646.641.641,0,0,0-.63-.391" transform="translate(-0.995 -5.91)" fill="#fff"/>
  </g>
</svg>
