<svg xmlns="http://www.w3.org/2000/svg" width="97.028" height="78.079" viewBox="0 0 97.028 78.079">
  <g id="icon-prm" transform="translate(-90.519 -134.953)">
    <path id="Path_2140" data-name="Path 2140" d="M59.012,73.3A39.01,39.01,0,1,1,50.958,2.2,38.448,38.448,0,0,1,71.613,17.283a38.184,38.184,0,0,1,6.646,17.354h-2.4c-.308-1.408-.565-2.785-.914-4.137C70.7,14.031,55.407,2.387,38.8,2.973a36.551,36.551,0,0,0-1.62,73.019A39.876,39.876,0,0,0,53.2,73.511c1.769-.634,3.839-.43,5.771-.608.016.133.029.265.043.4" transform="translate(90 134.467)" fill="#fff"/>
    <path id="Path_2142" data-name="Path 2142" d="M25.829,49.777V47.709c0-4.463-.029-8.927.024-13.388a1.4,1.4,0,0,0-1.216-1.648,32.832,32.832,0,0,1-5-1.867A8.691,8.691,0,0,1,14.305,22.4c.051-4.1,1.771-7.317,5.52-9.111a45.374,45.374,0,0,1,6.006-1.909c0-.6,0-1.518,0-2.44-.006-1.01.416-1.634,1.5-1.595,1.032.037,1.334.694,1.312,1.62-.022.883-.006,1.765-.006,2.642,1.375.282,2.628.455,3.831.8a9.16,9.16,0,0,1,7,8.244,2.859,2.859,0,0,1-.094,1.648c-.353.557-1.032,1.244-1.573,1.246s-1.208-.687-1.581-1.236c-.282-.416-.188-1.089-.269-1.646a6.584,6.584,0,0,0-7.313-5.653v1.363c0,4.276.033,8.55-.024,12.825a1.578,1.578,0,0,0,1.344,1.862,43.46,43.46,0,0,1,5.371,2.081c7.336,3.3,6.558,12.711,1.977,16.5a14.189,14.189,0,0,1-7.511,3.258c-.9.108-1.25.422-1.165,1.31.053.559.008,1.126.008,1.689,0,2.144-.288,2.719-1.432,2.621-1.842-.157-1.3-1.622-1.367-2.705-.057-.881-.012-1.769-.012-2.715-1.334-.261-2.574-.463-3.792-.751-6.355-1.512-8.56-5.9-8.582-12.009,0-.971.42-1.8,1.536-1.84,1.2-.039,1.589.808,1.675,1.848.041.514.02,1.034.063,1.548a8.454,8.454,0,0,0,9.1,7.874m2.88-.012c4.431.247,8.533-3.548,8.513-7.805a7.967,7.967,0,0,0-8.513-7.782ZM25.763,14.888c-4.453.057-7.8,3.048-7.925,6.938-.133,4.18,3.144,7.462,7.925,7.88Z" transform="translate(102.435 141.061)" fill="#d37b00"/>
    <path id="Path_2144" data-name="Path 2144" d="M47.259,39.847c0,1.969.018,3.941-.006,5.91-.018,1.5-.545,2.048-2.026,2.079-1.687.035-3.378.033-5.065,0-1.538-.027-2.1-.6-2.113-2.166Q38.02,39.834,38.057,34c.012-1.587.569-2.132,2.12-2.162,1.689-.033,3.378-.037,5.067,0,1.467.033,1.995.6,2.011,2.1.02,1.969,0,3.941,0,5.91m-2.487,5.4V34.3c-1.187,0-2.166.045-3.139-.014-.889-.055-1.126.326-1.112,1.153.041,2.109.012,4.219.012,6.328,0,3.9,0,3.9,4.239,3.478" transform="translate(126.073 164.584)" fill="#d37b00"/>
    <path id="Path_2146" data-name="Path 2146" d="M42.354,31.585c0,1.926.016,3.853,0,5.777a1.907,1.907,0,0,1-2.138,2.183q-2.392.044-4.79,0c-1.663-.027-2.207-.565-2.213-2.2q-.021-5.846,0-11.693c.008-1.626.49-2.093,2.111-2.109,1.691-.018,3.382-.025,5.073,0,1.43.024,1.936.537,1.952,1.977.022,2.018.006,4.039.006,6.057m-6.585,5.4h4.023V26.1H35.769Z" transform="translate(121.425 156.627)" fill="#d37b00"/>
    <path id="Path_2148" data-name="Path 2148" d="M50.7,23.234c0,1.971.014,3.941-.006,5.912-.016,1.483-.565,2.067-2.015,2.095-1.734.033-3.472.012-5.208,0a1.724,1.724,0,0,1-1.942-1.9q-.018-6.123.006-12.246a1.69,1.69,0,0,1,1.948-1.867c1.736.01,3.472-.016,5.208.01,1.469.022,1.987.561,2,2.083.022,1.969,0,3.941,0,5.91M48.123,17.8H44.07V28.7h4.053Z" transform="translate(129.43 148.643)" fill="#d37b00"/>
    <rect id="Rectangle_883" data-name="Rectangle 883" width="24.661" height="2.246" transform="translate(144.257 170.628)" fill="#fff"/>
    <rect id="Rectangle_884" data-name="Rectangle 884" width="21.697" height="2.283" transform="translate(165.85 186.854)" fill="#fff"/>
    <path id="Path_2152" data-name="Path 2152" d="M45.789,35.265v2.3H27.984c-.037-.734-.071-1.452-.112-2.3Z" transform="translate(116.301 167.909)" fill="#fff"/>
    <rect id="Rectangle_885" data-name="Rectangle 885" width="12.115" height="2.248" transform="translate(175.427 203.172)" fill="#fff"/>
    <rect id="Rectangle_886" data-name="Rectangle 886" width="8.284" height="2.332" transform="translate(144.271 186.842)" fill="#fff"/>
    <rect id="Rectangle_887" data-name="Rectangle 887" width="5.302" height="2.25" transform="translate(182.225 170.593)" fill="#fff"/>
  </g>
</svg>
