<svg xmlns="http://www.w3.org/2000/svg" xmlns:xlink="http://www.w3.org/1999/xlink" width="16" height="15.992" viewBox="0 0 16 15.992">
  <defs>
    <clipPath id="clip-path">
      <rect id="Rectangle_909" data-name="Rectangle 909" width="16" height="15.992" fill="none"/>
    </clipPath>
  </defs>
  <g id="icon-license" transform="translate(0 0)">
    <g id="Group_1782" data-name="Group 1782" transform="translate(0 0)" clip-path="url(#clip-path)">
      <path id="Path_2149" data-name="Path 2149" d="M8,0Q10.8,0,13.6,0a2.291,2.291,0,0,1,2.4,2.4c0,.894.005,1.789,0,2.684a.57.57,0,0,1-.837.555.592.592,0,0,1-.305-.57c0-.885,0-1.77,0-2.655a1.144,1.144,0,0,0-1.264-1.275q-5.6,0-11.189,0A1.135,1.135,0,0,0,1.148,2.4q0,3.6,0,7.194A1.136,1.136,0,0,0,2.4,10.852q3.04,0,6.08,0c.489,0,.78.368.618.775A.6.6,0,0,1,8.455,12c-1.56,0-3.121,0-4.681,0a11.927,11.927,0,0,1-1.908-.045A2.24,2.24,0,0,1,.013,9.822Q-.012,6,.014,2.171A2.258,2.258,0,0,1,2.293,0C4.2,0,6.1,0,8,0" transform="translate(0 0)" fill="#fff"/>
      <path id="Path_2150" data-name="Path 2150" d="M14.592,8.12q-1.355,0-2.71,0c-.442,0-.7-.21-.707-.564s.255-.577.692-.578h5.477c.412,0,.676.221.681.563s-.265.578-.695.578q-1.369,0-2.738,0" transform="translate(-6.599 -4.12)" fill="#fff"/>
      <path id="Path_2151" data-name="Path 2151" d="M9.245,12.558q1.341,0,2.683,0c.414,0,.677.22.683.562s-.264.579-.694.579q-2.683,0-5.366,0c-.425,0-.671-.208-.676-.563s.242-.578.687-.579q1.341,0,2.683,0" transform="translate(-3.469 -7.416)" fill="#fff"/>
      <path id="Path_2152" data-name="Path 2152" d="M12.9,18.109c.361,0,.722,0,1.083,0a.569.569,0,1,1,.023,1.137q-1.126.017-2.252,0a.569.569,0,1,1,.035-1.137c.37-.005.741,0,1.112,0" transform="translate(-6.599 -10.693)" fill="#fff"/>
      <path id="Path_2153" data-name="Path 2153" d="M28.739,15.682a3.411,3.411,0,0,0-3.687-1.672,3.315,3.315,0,0,0-2.559,2.349,3.278,3.278,0,0,0,.847,3.413.454.454,0,0,1,.14.349c-.007.571,0,1.142,0,1.713s0,1.142,0,1.713a.615.615,0,0,0,.306.6.6.6,0,0,0,.667-.077c.376-.258.761-.5,1.134-.765a.255.255,0,0,1,.349,0c.356.253.727.485,1.085.735a.637.637,0,0,0,.715.111.652.652,0,0,0,.307-.656c-.006-1.085,0-2.17-.007-3.254a.7.7,0,0,1,.22-.546,3.379,3.379,0,0,0,.487-4.008M26.9,20.78c0,.58,0,1.16,0,1.766a4.705,4.705,0,0,1-.7-.439.625.625,0,0,0-.859-.006l-.714.479c0-.653,0-1.249,0-1.845,0-.113.05-.127.14-.1a3.277,3.277,0,0,0,1.99,0c.153-.048.149.036.149.142m-1.137-1.131A2.284,2.284,0,1,1,28.04,17.37a2.28,2.28,0,0,1-2.281,2.278" transform="translate(-13.183 -8.225)" fill="#fff"/>
    </g>
  </g>
</svg>
