<svg xmlns="http://www.w3.org/2000/svg" xmlns:xlink="http://www.w3.org/1999/xlink" width="15" height="15" viewBox="0 0 15 15">
  <defs>
    <clipPath id="clip-path">
      <rect id="Rectangle_928" data-name="Rectangle 928" width="15" height="15" fill="none"/>
    </clipPath>
  </defs>
  <g id="Group_1875" data-name="Group 1875" transform="translate(0 0)">
    <g id="Group_1874" data-name="Group 1874" transform="translate(0 0)" clip-path="url(#clip-path)">
      <path id="Path_2175" data-name="Path 2175" d="M14.909,3.281c-.154-.3-.305-.61-.457-.916-.206-.417-.412-.833-.626-1.246A1.931,1.931,0,0,0,12,0Q7.5,0,3,0a1.916,1.916,0,0,0-1.837,1.14c-.169.331-.334.664-.5,1C.481,2.5.3,2.866.115,3.228A1.058,1.058,0,0,0,0,3.73Q0,6.917,0,10.1v2.779A1.979,1.979,0,0,0,2.11,15H9.151q1.914,0,3.829,0A1.96,1.96,0,0,0,15,12.972q0-2.641,0-5.283V3.671a.833.833,0,0,0-.091-.389M1.182,2.846c.091-.177.175-.354.257-.529a7.366,7.366,0,0,1,.6-1.1A1.078,1.078,0,0,1,2.957.78q4.545,0,9.09,0a1.072,1.072,0,0,1,.918.436,7.635,7.635,0,0,1,.6,1.11c.082.172.164.347.253.52l.153.3H1.028ZM14.221,12.9a1.2,1.2,0,0,1-1.339,1.326H2.107A1.2,1.2,0,0,1,.78,12.913V10.6q0-3.092-.007-6.184a.5.5,0,0,1,.117-.371.5.5,0,0,1,.384-.117c4.378.007,8.445.007,12.433,0a.519.519,0,0,1,.4.119.519.519,0,0,1,.12.382q-.011,3.14-.007,6.279Z" transform="translate(0 0)" fill="#fff"/>
      <path id="Path_2176" data-name="Path 2176" d="M23.17,40.722c-.434,0-.868,0-1.3,0H20.157l-.745,0c-.47,0-.476.278-.479.369a.369.369,0,0,0,.095.277.516.516,0,0,0,.377.128q1.879.007,3.758,0a.527.527,0,0,0,.383-.128.366.366,0,0,0,.1-.273c0-.246-.163-.372-.474-.374" transform="translate(-13.788 -29.653)" fill="#fff"/>
    </g>
  </g>
</svg>
