<svg id="Group_1610" data-name="Group 1610" xmlns="http://www.w3.org/2000/svg" xmlns:xlink="http://www.w3.org/1999/xlink" width="6" height="6" viewBox="0 0 6 6">
  <defs>
    <clipPath id="clip-path">
      <rect id="Rectangle_864" data-name="Rectangle 864" width="6" height="6" transform="translate(0 0)" fill="none"/>
    </clipPath>
  </defs>
  <g id="Group_1609" data-name="Group 1609" transform="translate(0 0)" clip-path="url(#clip-path)">
    <path id="Path_2097" data-name="Path 2097" d="M5.956,1.321c-.142-.28-.277-.564-.422-.843A.827.827,0,0,0,4.754,0Q3,0,1.247,0A.83.83,0,0,0,.461.488C.324.758.191,1.03.054,1.3A.49.49,0,0,0,0,1.531Q0,3.314,0,5.1A.848.848,0,0,0,.9,6H3c.711,0,1.423,0,2.134,0A.843.843,0,0,0,6,5.13Q6,3.319,6,1.508a.4.4,0,0,0-.044-.187M.938.6A.341.341,0,0,1,1.231.462h3.54A.339.339,0,0,1,5.063.6a5.457,5.457,0,0,1,.328.626H.61A5.318,5.318,0,0,1,.938.6m4.6,4.5a.392.392,0,0,1-.442.437H.9a.39.39,0,0,1-.437-.43c0-1.1,0-2.206,0-3.309,0-.1.03-.111.116-.11q2.421,0,4.842,0c.091,0,.123.014.123.115,0,1.1,0,2.2,0,3.3" transform="translate(0 0.001)" fill="#fff"/>
    <path id="Path_2098" data-name="Path 2098" d="M20.663,40.72c-.242,0-.484,0-.726,0s-.492,0-.738,0c-.167,0-.262.082-.265.221a.232.232,0,0,0,.263.239q.732,0,1.464,0c.168,0,.268-.093.266-.237s-.1-.223-.263-.224" transform="translate(-16.929 -36.41)" fill="#fff"/>
  </g>
</svg>
