<svg id="Group_1610" data-name="Group 1610" xmlns="http://www.w3.org/2000/svg" xmlns:xlink="http://www.w3.org/1999/xlink" width="12" height="12" viewBox="0 0 12 12">
  <defs>
    <clipPath id="clip-path">
      <rect id="Rectangle_864" data-name="Rectangle 864" width="12" height="12" transform="translate(0 0)" fill="none"/>
    </clipPath>
  </defs>
  <g id="Group_1609" data-name="Group 1609" transform="translate(0 0)" clip-path="url(#clip-path)">
    <path id="Path_2097" data-name="Path 2097" d="M11.912,2.642c-.284-.56-.555-1.128-.844-1.686A1.654,1.654,0,0,0,9.507,0Q6,0,2.494,0A1.66,1.66,0,0,0,.922.977C.648,1.516.382,2.061.107,2.6A.98.98,0,0,0,0,3.063q0,3.565,0,7.129A1.7,1.7,0,0,0,1.8,12H6c1.423,0,2.845,0,4.268,0A1.685,1.685,0,0,0,12,10.261q0-3.622,0-7.245a.8.8,0,0,0-.088-.375M1.877,1.194a.681.681,0,0,1,.585-.27H9.541a.678.678,0,0,1,.584.271,10.913,10.913,0,0,1,.655,1.252H1.22a10.636,10.636,0,0,1,.657-1.253m9.2,9.007a.783.783,0,0,1-.884.874H1.8a.779.779,0,0,1-.874-.86C.924,8.009.928,5.8.92,3.6c0-.191.061-.221.232-.221q4.842.007,9.683,0c.182,0,.247.028.246.231-.008,2.2,0,4.4-.005,6.594" transform="translate(0 0.001)" fill="#fff"/>
    <path id="Path_2098" data-name="Path 2098" d="M22.392,40.721c-.484,0-.968,0-1.453,0s-.984,0-1.476,0c-.334,0-.524.163-.531.442a.464.464,0,0,0,.526.479q1.464.006,2.928,0c.335,0,.536-.187.531-.473s-.2-.445-.527-.447" transform="translate(-14.926 -32.101)" fill="#fff"/>
  </g>
</svg>
