<svg id="Group_1614" data-name="Group 1614" xmlns="http://www.w3.org/2000/svg" xmlns:xlink="http://www.w3.org/1999/xlink" width="14" height="13.938" viewBox="0 0 14 13.938">
  <defs>
    <clipPath id="clip-path">
      <rect id="Rectangle_866" data-name="Rectangle 866" width="14" height="13.938" fill="none"/>
    </clipPath>
  </defs>
  <g id="Group_1613" data-name="Group 1613" transform="translate(0 0)" clip-path="url(#clip-path)">
    <path id="Path_2103" data-name="Path 2103" d="M14.128.122a.551.551,0,0,0-.505-.1L11.715.345q-1.684.29-3.368.578a.723.723,0,0,0-.636.487.737.737,0,0,0,.255.76c.167.158.329.321.486.478l.044.044-.6.6a3.781,3.781,0,0,0-1.5-2A3.778,3.778,0,0,0,3.587.669a3.895,3.895,0,0,0-.555,7.558l-.937.941a.511.511,0,0,0-.175.372.422.422,0,0,0,.15.306.427.427,0,0,0,.286.118.505.505,0,0,0,.368-.187l.033-.033L6.713,5.785,9.174,3.321a.716.716,0,0,0,0-1.185l-.387-.4L13.255.963l-.91,4.357c-.149-.154-.285-.295-.424-.434a.709.709,0,0,0-1.157,0l-.562.556q-.586.579-1.169,1.16c-.259.26-.517.529-.767.789L8,7.671a.414.414,0,0,0-.033.576.55.55,0,0,0-.388-.06l-.035,0a.323.323,0,0,0-.219.136l-.016.019L5.44,10.218l-.19.188c-.176.173-.357.353-.527.542a.553.553,0,0,0-.1.46.383.383,0,0,0,.21.237c.021.013.044.026.064.041l.127.095.126-.1.084-.061a1.35,1.35,0,0,0,.177-.142q1.064-1.062,2.124-2.127l.386-.387.019-.017a.322.322,0,0,0,.136-.217l0-.037a.563.563,0,0,0-.052-.382.412.412,0,0,0,.262.1.438.438,0,0,0,.323-.141Q9.156,7.741,9.693,7.2l.546-.544.839-.832.273-.27.077.077c.175.173.348.345.517.52a.685.685,0,0,0,.711.214.676.676,0,0,0,.482-.566q.273-1.315.547-2.631.265-1.274.53-2.549a.561.561,0,0,0-.088-.5M3.18,7.321a3.625,3.625,0,0,1-.764-.4A2.847,2.847,0,0,1,1.192,4.648,3.069,3.069,0,0,1,3.953,1.5,2.992,2.992,0,0,1,7.174,4a.11.11,0,0,1-.041.126c-.687.674-1.3,1.277-1.865,1.845l-.1.1c-.392.392-.8.8-1.183,1.21-.213.229-.364.227-.525.154-.091-.041-.183-.081-.276-.12" transform="translate(-0.238 0)" fill="#fff"/>
    <path id="Path_2104" data-name="Path 2104" d="M4.184,40.371a.444.444,0,0,0-.783-.265l-.74.741Q1.455,42.054.251,43.263a.765.765,0,0,0-.126.185c-.013.024-.027.05-.044.077L0,43.657l.1.116a.694.694,0,0,1,.044.056.427.427,0,0,0,.226.185A.476.476,0,0,0,.5,44.03a.51.51,0,0,0,.3-.1,2.444,2.444,0,0,0,.28-.265c.031-.033.063-.066.1-.1l.793-.793,2.039-2.039a.517.517,0,0,0,.177-.368" transform="translate(0 -30.121)" fill="#fff"/>
    <path id="Path_2105" data-name="Path 2105" d="M9.831,47.172l-.283.283q-.595.594-1.187,1.191a.666.666,0,0,0-.119.179c-.012.023-.024.047-.039.073l-.075.129.1.113a.589.589,0,0,1,.039.052.38.38,0,0,0,.249.192.6.6,0,0,0,.089.006.531.531,0,0,0,.363-.126c.445-.43.887-.876,1.315-1.307l.178-.179a.472.472,0,0,0,.152-.339.423.423,0,0,0-.142-.306.43.43,0,0,0-.637.036" transform="translate(-6.13 -35.454)" fill="#fff"/>
    <path id="Path_2106" data-name="Path 2106" d="M16.351,33.309a.409.409,0,0,0,.254.193.483.483,0,0,0,.08.006.553.553,0,0,0,.371-.135c.294-.283.586-.577.869-.861l.42-.421c.326-.325.15-.576.059-.67a.416.416,0,0,0-.3-.137h0a.525.525,0,0,0-.371.183l-.389.39q-.447.447-.891.9a.746.746,0,0,0-.118.172c-.013.023-.027.049-.044.076l-.083.134.106.117a.649.649,0,0,1,.043.055" transform="translate(-12.219 -23.595)" fill="#fff"/>
    <path id="Path_2107" data-name="Path 2107" d="M12.007,12.39h.017c0,.01,0,.019,0,.029a.77.77,0,0,0,.019.284c.034.1.167.255.293.255h.011a.493.493,0,0,0,.306-.216.309.309,0,0,0,.034-.238l0-.021c-.009-.08-.011-.092.094-.106a1.012,1.012,0,0,0-.112-2.015c-.062,0-.124,0-.185,0a2.493,2.493,0,0,1-.263-.007.346.346,0,0,1-.029-.684.942.942,0,0,1,.184-.013c.236,0,.471,0,.707,0H13.1a.377.377,0,0,0,.278-.1.317.317,0,0,0,.087-.234.324.324,0,0,0-.369-.328h-.1a.777.777,0,0,1-.255-.02.755.755,0,0,1-.048-.248.318.318,0,0,0-.326-.315h0a.314.314,0,0,0-.328.312.652.652,0,0,0,0,.171c.014.088.006.129-.134.178a.983.983,0,0,0-.64,1.082,1.006,1.006,0,0,0,.94.864c.086.005.171.005.254.005h.123c.262,0,.425.138.426.35s-.164.35-.421.353h-.363c-.141,0-.282,0-.423,0a.33.33,0,1,0,0,.66c.069,0,.138,0,.219,0" transform="translate(-8.478 -6.343)" fill="#fff"/>
  </g>
</svg>
