<svg id="Group_1612" data-name="Group 1612" xmlns="http://www.w3.org/2000/svg" xmlns:xlink="http://www.w3.org/1999/xlink" width="17" height="18.551" viewBox="0 0 17 18.551">
  <defs>
    <clipPath id="clip-path">
      <rect id="Rectangle_865" data-name="Rectangle 865" width="17" height="18.551" transform="translate(0 0)" fill="none"/>
    </clipPath>
  </defs>
  <g id="Group_1611" data-name="Group 1611" transform="translate(0 0)" clip-path="url(#clip-path)">
    <path id="Path_2099" data-name="Path 2099" d="M14.238,9.379a.241.241,0,0,0-.336-.062A4.614,4.614,0,0,0,12.43,10.97a4.682,4.682,0,0,0-.474,2.795.241.241,0,0,0,.213.206l.026,0,.034,0a.242.242,0,0,0,.205-.273,4.194,4.194,0,0,1,.423-2.5,4.13,4.13,0,0,1,1.317-1.48.242.242,0,0,0,.062-.336" transform="translate(-8.147 -6.342)" fill="#fff"/>
    <path id="Path_2100" data-name="Path 2100" d="M33.605,22.091a.246.246,0,0,0-.252.229,2.469,2.469,0,0,1-1.333,2.073.242.242,0,1,0,.223.429,2.95,2.95,0,0,0,1.593-2.478.242.242,0,0,0-.23-.253" transform="translate(-21.811 -15.109)" fill="#fff"/>
    <path id="Path_2101" data-name="Path 2101" d="M17.1,16.617l-2.8-3.995-.5.35-1.253-1.79a5.593,5.593,0,0,0,.62-7.49l.577-.836a.966.966,0,0,0,.415.094.978.978,0,1,0-.682-.279l-.524.76A5.6,5.6,0,0,0,4.4,10.667L3.178,12.515a1.554,1.554,0,1,0,.281.165l1.166-1.761a5.6,5.6,0,0,0,6.523,1.231l1.261,1.8-.5.35,2.8,3.994a1.453,1.453,0,0,0,.944.6,1.459,1.459,0,0,0,1.093-.242,1.462,1.462,0,0,0,.359-2.037M14.166,1.325a.65.65,0,1,1-.65.65.651.651,0,0,1,.65-.65m-10.4,12.6A1.219,1.219,0,1,1,2.545,12.7a1.22,1.22,0,0,1,1.219,1.219M3.439,7.1A5.28,5.28,0,0,1,12.77,3.707l-2.552,3.7a.971.971,0,0,0-1.34.3l-.77-.481a.976.976,0,1,0-1.661.352L4.59,10.382A5.256,5.256,0,0,1,3.439,7.1M9.7,7.583a.65.65,0,1,1-.65.65.651.651,0,0,1,.65-.65m-3.169-.65a.65.65,0,1,1,.65.65.651.651,0,0,1-.65-.65M4.809,10.641,6.7,7.783a.97.97,0,0,0,1.258-.268l.79.494a.959.959,0,0,0-.027.225.975.975,0,1,0,1.74-.6L12.98,3.975a5.279,5.279,0,0,1-8.171,6.665m6.655,1.394.865-.606,1.212,1.731-.865.606Zm5.562,5.619a1.13,1.13,0,0,1-.468.734h0a1.137,1.137,0,0,1-1.584-.279l-2.611-3.728.233-.163.266-.186.865-.606.266-.186.233-.163L16.838,16.8a1.131,1.131,0,0,1,.188.85" transform="translate(-0.685 -0.684)"/>
    <path id="Path_2102" data-name="Path 2102" d="M15.223,18.551a1.809,1.809,0,0,1-.311-.027,1.767,1.767,0,0,1-1.148-.731l-2.978-4.253.5-.35-.93-1.328a5.853,5.853,0,0,1-2.318.473,5.945,5.945,0,0,1-4.047-1.6l-.8,1.209a1.857,1.857,0,1,1-1.33-.563,1.843,1.843,0,0,1,.507.071L3.326,10a5.92,5.92,0,0,1,8.913-7.757L12.4,2a1.278,1.278,0,0,1-.214-.712,1.291,1.291,0,1,1,1.291,1.291,1.278,1.278,0,0,1-.291-.034L12.878,3A5.857,5.857,0,0,1,13.96,6.411a5.945,5.945,0,0,1-1.678,4.125l.919,1.312.5-.35,2.978,4.253a1.779,1.779,0,0,1-1.455,2.8m-3.1-4.777,2.429,3.469a.822.822,0,1,0,1.346-.943l-2.429-3.469ZM1.86,12.335a.9.9,0,1,0,.9.9.9.9,0,0,0-.9-.9m9.359-.907.85,1.213.347-.243-.849-1.213ZM4.526,9.921A4.964,4.964,0,0,0,13,6.411a4.913,4.913,0,0,0-.711-2.557l-2.135,3.1a1.273,1.273,0,0,1,.147.6,1.291,1.291,0,0,1-2.583,0c0-.021,0-.043,0-.065l-.4-.249a1.309,1.309,0,0,1-1.188.255Zm3.51-8.476A4.972,4.972,0,0,0,3.07,6.411a4.9,4.9,0,0,0,.822,2.733L5.378,6.9a1.291,1.291,0,1,1,2.4-.511l.352.22a1.308,1.308,0,0,1,1.3-.283l2.26-3.28a4.956,4.956,0,0,0-3.649-1.6m.975,5.77a.334.334,0,1,0,.334.334.334.334,0,0,0-.334-.334m-2.519-1.3a.334.334,0,1,0,.334.334.334.334,0,0,0-.334-.334M13.481.957a.334.334,0,1,0,.334.334.334.334,0,0,0-.334-.334" transform="translate(0 0)" fill="#fff"/>
  </g>
</svg>
