<svg xmlns="http://www.w3.org/2000/svg" xmlns:xlink="http://www.w3.org/1999/xlink" width="14" height="12.176" viewBox="0 0 14 12.176">
  <defs>
    <clipPath id="clip-path">
      <rect id="Rectangle_912" data-name="Rectangle 912" width="14" height="12.176" transform="translate(0 0)" fill="none"/>
    </clipPath>
  </defs>
  <g id="Group_1789" data-name="Group 1789" transform="translate(0 0)">
    <g id="Group_1788" data-name="Group 1788" transform="translate(0 0)" clip-path="url(#clip-path)">
      <path id="Path_2160" data-name="Path 2160" d="M14,17.8a1.81,1.81,0,0,0-1.157-1.7,3.246,3.246,0,0,0-1.722-.09,1.758,1.758,0,0,0-1.3,1.014A3.324,3.324,0,0,0,7.9,16.006a10.088,10.088,0,0,0-1.374-.034,2.918,2.918,0,0,0-1.065.2,3.387,3.387,0,0,0-1.276.853,1.98,1.98,0,0,0-1.036-.947A3.713,3.713,0,0,0,1.9,15.97,1.854,1.854,0,0,0,0,17.855c.012.954.015,1.909,0,2.863a.844.844,0,0,0,.873.874c.75-.022,1.5,0,2.251-.007.118,0,.183.006.22.158a.925.925,0,0,0,.945.718q2.71,0,5.421,0a.925.925,0,0,0,.947-.715c.037-.149.1-.16.219-.16q1.126,0,2.252,0A.819.819,0,0,0,14,20.709c0-.969,0-1.938,0-2.907m-10.506.392a3.957,3.957,0,0,0-.177,1.332c0,.364,0,.728.006,1.092,0,.119-.027.166-.156.165q-1.092-.008-2.183,0c-.137,0-.151-.056-.15-.168,0-.48,0-.961,0-1.441,0-.444,0-.888,0-1.332a1,1,0,0,1,.9-1.046,3.072,3.072,0,0,1,.935.009,1.06,1.06,0,0,1,.818,1.389M9.6,21.658c-.874-.007-1.748,0-2.622,0H4.422c-.271,0-.3-.026-.3-.3.011-.779-.053-1.561.027-2.336a2.453,2.453,0,0,1,2.391-2.232,4.1,4.1,0,0,1,1.746.169A2.511,2.511,0,0,1,9.876,19.3c.007.692,0,1.384,0,2.075,0,.208-.071.283-.281.281m3.39-.875q-1.069-.009-2.139,0c-.138,0-.17-.046-.168-.176.006-.48,0-.96,0-1.44a2.731,2.731,0,0,0-.153-.92,1.079,1.079,0,0,1,1.048-1.468,4.164,4.164,0,0,1,.74.023,1,1,0,0,1,.852,1.005c0,.458,0,.917,0,1.375s-.006.946,0,1.419c0,.148-.045.183-.184.182" transform="translate(0 -10.287)" fill="#fff"/>
      <path id="Path_2161" data-name="Path 2161" d="M15.411,0a2.356,2.356,0,0,0-2.362,2.374,2.371,2.371,0,1,0,4.742-.018A2.355,2.355,0,0,0,15.411,0m.011,3.934a1.586,1.586,0,0,1-1.564-1.556,1.563,1.563,0,1,1,3.126,0,1.588,1.588,0,0,1-1.562,1.559" transform="translate(-8.418 0)" fill="#fff"/>
      <path id="Path_2162" data-name="Path 2162" d="M3.455,4.93a1.5,1.5,0,1,0,1.5,1.51,1.48,1.48,0,0,0-1.5-1.51m0,2.183a.688.688,0,1,1,.018-1.376.688.688,0,0,1-.018,1.376" transform="translate(-1.265 -3.181)" fill="#fff"/>
      <path id="Path_2163" data-name="Path 2163" d="M30.576,4.93a1.5,1.5,0,1,0,1.487,1.5,1.48,1.48,0,0,0-1.487-1.5m-.028,2.183a.688.688,0,1,1,.707-.685.709.709,0,0,1-.707.685" transform="translate(-18.755 -3.181)" fill="#fff"/>
    </g>
  </g>
</svg>
