<svg xmlns="http://www.w3.org/2000/svg" xmlns:xlink="http://www.w3.org/1999/xlink" width="14" height="13.999" viewBox="0 0 14 13.999">
  <defs>
    <clipPath id="clip-path">
      <rect id="Rectangle_867" data-name="Rectangle 867" width="14" height="13.999" fill="none"/>
    </clipPath>
  </defs>
  <g id="Group_1616" data-name="Group 1616" transform="translate(0 0)">
    <g id="Group_1615" data-name="Group 1615" transform="translate(0 0)" clip-path="url(#clip-path)">
      <path id="Path_2108" data-name="Path 2108" d="M0,7Q0,4.377,0,1.755A1.643,1.643,0,0,1,1.75,0C3.425,0,5.1.008,6.776,0A1.768,1.768,0,0,1,8.124.558c.313.325.634.643.957.959a1.712,1.712,0,0,1,.539,1.29c0,.969,0,1.938,0,2.907a.541.541,0,0,1-.818.5.563.563,0,0,1-.275-.534c0-.94,0-1.88,0-2.819a.765.765,0,0,0-.247-.6c-.327-.312-.642-.634-.959-.957a.667.667,0,0,0-.506-.21c-1.7,0-3.409,0-5.113,0A.549.549,0,0,0,1.1,1.71q0,5.289,0,10.579A.551.551,0,0,0,1.7,12.9c.714,0,1.428,0,2.142,0a.545.545,0,0,1,.544.361.511.511,0,0,1-.16.591.724.724,0,0,1-.378.134q-1.125.019-2.251,0A1.635,1.635,0,0,1,0,12.333C0,10.556,0,8.778,0,7" transform="translate(0 0)" fill="#fff"/>
      <path id="Path_2109" data-name="Path 2109" d="M30.645,23.7a1.568,1.568,0,0,1,1.436,1,1.545,1.545,0,0,1-.329,1.778c-.718.745-1.459,1.467-2.19,2.2s-1.456,1.471-2.2,2.19a3.759,3.759,0,0,1-.733.538c-.421.244-.861.456-1.3.678a1.1,1.1,0,0,1-1.494-1.5c.04-.078.083-.154.118-.234A7.886,7.886,0,0,1,25.882,27.7c1.195-1.132,2.337-2.319,3.5-3.486a1.709,1.709,0,0,1,1.264-.517m-5.782,7.392c.4-.206.8-.4,1.195-.623a2.71,2.71,0,0,0,.576-.419q2.124-2.106,4.233-4.228a1.328,1.328,0,0,0,.16-.178.542.542,0,0,0-.718-.775,1.23,1.23,0,0,0-.213.186c-1.313,1.312-2.6,2.647-3.947,3.927a6.917,6.917,0,0,0-1.285,2.111" transform="translate(-18.228 -18.232)" fill="#fff"/>
      <path id="Path_2110" data-name="Path 2110" d="M12.122,27.5c.663,0,1.326,0,1.989,0a.551.551,0,1,1,.01,1.093q-2.011,0-4.022,0a.551.551,0,1,1,.012-1.093c.67,0,1.341,0,2.011,0" transform="translate(-7.3 -21.16)" fill="#fff"/>
      <path id="Path_2111" data-name="Path 2111" d="M12.11,18.023q.994,0,1.989,0a.552.552,0,1,1,.009,1.093q-2,0-4,0a.552.552,0,1,1,.013-1.094q.994,0,1.989,0" transform="translate(-7.299 -13.866)" fill="#fff"/>
      <path id="Path_2112" data-name="Path 2112" d="M11.028,36.981c.312,0,.625,0,.937,0a.547.547,0,1,1,0,1.092q-.948.007-1.9,0a.547.547,0,1,1,0-1.092c.32,0,.639,0,.959,0" transform="translate(-7.299 -28.452)" fill="#fff"/>
    </g>
  </g>
</svg>
