<svg id="Group_1610" data-name="Group 1610" xmlns="http://www.w3.org/2000/svg" xmlns:xlink="http://www.w3.org/1999/xlink" width="14" height="14" viewBox="0 0 14 14">
  <defs>
    <clipPath id="clip-path">
      <rect id="Rectangle_864" data-name="Rectangle 864" width="14" height="14" transform="translate(0 0)" fill="none"/>
    </clipPath>
  </defs>
  <g id="Group_1609" data-name="Group 1609" transform="translate(0 0)" clip-path="url(#clip-path)">
    <path id="Path_2097" data-name="Path 2097" d="M13.9,3.082c-.331-.654-.647-1.316-.984-1.967A1.93,1.93,0,0,0,11.092,0Q7,0,2.91,0A1.936,1.936,0,0,0,1.076,1.14C.756,1.769.446,2.4.125,3.033A1.143,1.143,0,0,0,0,3.574q0,4.159,0,8.317A1.978,1.978,0,0,0,2.1,14H7c1.66,0,3.32,0,4.979,0A1.966,1.966,0,0,0,14,11.972q0-4.226,0-8.452a.935.935,0,0,0-.1-.437M2.19,1.394a.8.8,0,0,1,.683-.315h8.259a.791.791,0,0,1,.682.316,12.732,12.732,0,0,1,.764,1.46H1.424A12.408,12.408,0,0,1,2.19,1.394M12.922,11.9a.914.914,0,0,1-1.031,1.02H2.1a.909.909,0,0,1-1.02-1c0-2.574,0-5.147-.006-7.721,0-.223.071-.258.271-.258q5.649.008,11.3,0c.212,0,.288.033.287.269-.009,2.565-.005,5.129-.006,7.694" transform="translate(0 0)" fill="#fff"/>
    <path id="Path_2098" data-name="Path 2098" d="M22.969,40.721c-.565,0-1.13,0-1.695,0s-1.148,0-1.722,0c-.389,0-.611.191-.619.516a.541.541,0,0,0,.614.558q1.708.007,3.417,0c.391,0,.625-.218.62-.552s-.23-.52-.614-.522" transform="translate(-14.258 -30.664)" fill="#fff"/>
  </g>
</svg>
