<svg xmlns="http://www.w3.org/2000/svg" width="24" height="24" viewBox="0 0 24 24">
  <g id="icon-footer2" transform="translate(-1816 -984)">
    <path id="Path_53" data-name="Path 53" d="M1828,1007a11.5,11.5,0,1,1,11.5-11.5A11.5,11.5,0,0,1,1828,1007Z" transform="translate(0 0.5)" fill="none" stroke="#97999b" stroke-width="1"/>
    <path id="Path_54" data-name="Path 54" d="M1830.33,1001.17v-2h-2.66V992.5h-2v2h-4v-4.667h4v2h4.66v-2h4V994.5h-4v-2h-2v6h2v-2h4v4.67Zm.67-7.337h2.67V990.5H1831Zm0,6.667h2.67v-3.334H1831Zm-8.67-6.667H1825V990.5h-2.67Z" transform="translate(0 0.5)" fill="#97999b"/>
  </g>
</svg>
