<svg xmlns="http://www.w3.org/2000/svg" width="24" height="24" viewBox="0 0 24 24">
  <g id="icon-footer4" transform="translate(-1880 -984)">
    <path id="Path_57" data-name="Path 57" d="M1892,1007a11.5,11.5,0,1,1,11.5-11.5A11.5,11.5,0,0,1,1892,1007Z" transform="translate(0 0.5)" fill="none" stroke="#97999b" stroke-width="1"/>
    <path id="Path_58" data-name="Path 58" d="M1892,991.372a1.123,1.123,0,1,1,.8-.328A1.085,1.085,0,0,1,1892,991.372Zm-1.46,10.458v-8.715c-.69-.055-1.37-.132-2.02-.231s-1.27-.217-1.85-.358l.15-.667a19.157,19.157,0,0,0,2.54.45,24.97,24.97,0,0,0,5.28,0,19.157,19.157,0,0,0,2.54-.45l.15.667c-.58.141-1.19.26-1.85.358s-1.33.176-2.02.231v8.715h-.67v-4.151h-1.58v4.151Z" transform="translate(0 0.5)" fill="#97999b"/>
  </g>
</svg>
