<svg xmlns="http://www.w3.org/2000/svg" width="145.755" height="146" viewBox="0 0 145.755 146"><defs><style>.a{fill:#fff;}.b{fill:#ed7014;}</style></defs><g transform="translate(-576.226 -624.005)"><path class="a" d="M661.622,696.081c.5-6.2.982-12.149,1.461-18.1.2-2.427.365-4.855.584-7.28.655-7.25,5.3-12.73,12.47-13.674a49.128,49.128,0,0,1,13.316.094c6.856,1,11.468,6.47,12.054,13.382.65,7.681,1.277,15.366,1.76,23.06.13,2.069.785,2.812,2.9,2.732,3.953-.149,7.915-.01,11.872-.052,2.2-.022,4.031.6,3.939,3.1-.085,2.3-1.887,2.789-3.94,2.787q-68.959-.026-137.919.006c-2.086,0-3.82-.6-3.89-2.86-.078-2.519,1.8-3.055,3.978-3.032,4.441.045,8.883.013,13.761.013-.8-6.656-1.521-12.962-2.329-19.256-.53-4.129.247-5.1,4.437-5.1q16.439-.015,32.881,0c4.313,0,5.02.927,4.456,5.348-.791,6.2-1.5,12.416-2.264,18.839Zm36.074-.024c-.625-8.413-1.114-16.506-1.867-24.574-.534-5.732-4.22-8.889-9.944-8.949-2.334-.025-4.668-.042-7,0-5.082.1-8.853,3.1-9.387,8.163-.883,8.348-1.35,16.739-2.012,25.356Zm-72.46-.02c.746-6.067,1.478-12.013,2.225-18.1H597.613c.774,6.189,1.52,12.148,2.291,18.313,8,0,15.682,0,23.361-.007C623.847,696.244,624.431,696.125,625.236,696.037Z" transform="translate(0 13.02)"/><path class="a" d="M608.45,697.616c3.561-3.108,7.5-4.8,12.3-3.475,5.381,1.489,9.165,6.148,8.774,11.694-.768,10.929-1.841,21.835-2.815,32.749-.178,1.987-.911,3.747-3.3,3.49s-2.681-2.086-2.5-4.1c.919-10.1,1.78-20.211,2.755-30.309.445-4.617-1.707-7.859-5.631-8.107-3.955-.25-6.656,2.59-6.684,7.279-.057,9.948-.011,19.9-.017,29.846,0,1.013.264,2.211-.177,2.993-.564,1-1.821,2.384-2.6,2.279-1.053-.141-2.142-1.409-2.818-2.452-.42-.651-.116-1.777-.116-2.691,0-10.151.025-20.3-.021-30.455-.016-3.323-1.713-5.792-4.446-6.558-2.71-.761-5.218-.1-6.7,2.285a8.534,8.534,0,0,0-1.115,4.845c.77,10.319,1.81,20.618,2.543,30.939a5.217,5.217,0,0,1-1.742,3.958c-1.568,1.15-3.5-.371-3.751-2.848-.834-8.277-1.575-16.563-2.346-24.846-.225-2.425-.458-4.848-.635-7.277-.39-5.3,1.728-9.378,6.425-11.788,4.812-2.473,9.429-1.717,13.594,1.74C607.747,697.065,608.067,697.31,608.45,697.616Z" transform="translate(4.449 27.788)"/><path class="b" d="M611.585,655.993c-3.958,0-7.917-.035-11.875.014-4.454.056-7.543,2.146-8.984,6.393-2.218,6.524-4.286,13.1-6.292,19.694a5.95,5.95,0,0,0,.214,3.221c.636,2.134,1.809,4.153,2.129,6.313a4.292,4.292,0,0,1-1.66,3.544c-.661.4-3-.477-3.374-1.323-2.286-5.146-4.77-10.182-2.153-16.246,2.276-5.278,3.572-10.975,5.362-16.467,2.295-7.042,7.645-10.958,15.05-11q11.873-.065,23.748-.01a14.853,14.853,0,0,1,14.346,10.279c2.239,6.623,4.271,13.316,6.378,19.983,1.685,5.33-1.389,9.61-3.322,14.08-.266.615-2.3,1.042-3.13.68-.855-.372-1.329-1.778-1.788-2.814-.154-.348.171-.993.419-1.418,3.026-5.2,2.351-10.323.15-15.65-1.581-3.827-2.548-7.9-3.823-11.859-1.677-5.21-4.553-7.33-10.129-7.409C619.1,655.947,615.34,655.99,611.585,655.993Z" transform="translate(0.895 10.418)"/><path class="b" d="M662.059,701.724c0,6.911.059,13.3-.038,19.678-.028,1.879,1.083,1.929,2.415,2.346a95.313,95.313,0,0,1,12.486,4.413,11.53,11.53,0,0,1,6.219,8.237c.456,2.061.406,4.107-1.978,4.72-2.419.621-3.054-1.115-3.818-3.182a10.011,10.011,0,0,0-3.921-5.058c-9.475-5.269-19.215-5.275-28.646.056-1.832,1.035-3,3.58-3.989,5.661-.789,1.669-1.7,3.2-3.439,2.489-1.114-.457-2.583-2.671-2.276-3.5,1.058-2.84,2.367-5.858,4.426-7.995,3.467-3.6,8.293-4.911,13.154-5.76,1.087-.19,2.176-.364,3.383-.565V701.726c-4.269,0-8.484,0-12.7,0-.912,0-2.04.312-2.689-.108-1.065-.688-2.517-1.861-2.51-2.821s1.428-2.261,2.528-2.792c.991-.478,2.386-.118,3.6-.119,10.55-.007,21.1.005,31.651-.035,2.229-.008,4.366.312,4.3,3.026s-2.286,2.889-4.463,2.866C671.315,701.691,666.876,701.724,662.059,701.724Z" transform="translate(23.475 28.641)"/><path class="a" d="M621.6,639.263a15.106,15.106,0,1,1-14.954-15.258A15.141,15.141,0,0,1,621.6,639.263Zm-15.075,9.086a9.236,9.236,0,1,0-9.271-9.206A9.224,9.224,0,0,0,606.525,648.349Z" transform="translate(6.053 0)"/></g></svg>